<svg enable-background="new 0 0 1440 2000" viewBox="0 0 1440 2000" xmlns="http://www.w3.org/2000/svg"><path d="m730.4 1017.1c-6.9 0-13.9 0-20.8 0-2.8 8.4-6.7 12-12.8 11.8-6-.1-9.7-3.6-12.4-12-2.2 0-4.5 0-7.3 0 0-12.6-.2-24.8.1-37.1.1-4.3 3.4-6.8 7.8-6.9 17.8-.1 35.7-.1 53.5.1 1.7 0 3.7 1.3 5 2.5 6.4 6.1 12.7 12.3 18.7 18.8 1.5 1.6 2.5 4.2 2.6 6.5.4 5.1.1 10.3.1 15.9-3.3 0-6.4 0-9.3 0-2.8 8.6-6.4 12.1-12.4 12.2-6.1.2-10-3.4-12.8-11.8zm-45.3-20.4h15.6c0-5.4 0-10.4 0-15.3-5.4 0-10.5 0-15.6 0zm39.5.2c0-5.2 0-10.3 0-15.6-5.2 0-10.3 0-15.2 0v15.6zm26.8-.1c.3-.3.5-.6.8-1-6.5-4.5-10-12.6-18.9-15.5v16.5zm-54.2 14.2c-3.6.3-6 2.2-6.1 5.9s2.1 6 5.7 6.1c3.7.1 5.9-2.1 6.1-5.7.1-3.8-2.2-5.8-5.7-6.3zm45.5 0c-3.5.6-5.8 2.5-5.6 6.3.2 3.7 2.5 5.8 6.1 5.7 3.6-.2 5.8-2.5 5.7-6.1-.1-3.8-2.5-5.6-6.2-5.9z" fill="#55adb5"/><g fill="#fff"><path d="m685.1 996.7c0-5.3 0-10.1 0-15.3h15.6v15.3c-5.1 0-10.1 0-15.6 0z"/><path d="m724.6 996.9c-5.2 0-10 0-15.2 0 0-5.1 0-10.2 0-15.6h15.2z"/><path d="m751.4 996.8c-6 0-11.9 0-18.1 0 0-5.3 0-10.4 0-16.5 8.8 2.9 12.4 11 18.9 15.5-.3.3-.6.7-.8 1z"/><path d="m697.2 1011c3.5.6 5.8 2.5 5.7 6.2s-2.4 5.8-6.1 5.7-5.8-2.4-5.7-6.1 2.5-5.5 6.1-5.8z"/><path d="m742.7 1011c3.6.3 6 2.1 6.2 5.8.1 3.7-2 6-5.7 6.1-3.7.2-6-2-6.1-5.7-.2-3.7 2.1-5.6 5.6-6.2z"/></g></svg>