<?xml version="1.0" encoding="utf-8"?>
<!-- Generator: Adobe Illustrator 19.1.0, SVG Export Plug-In . SVG Version: 6.00 Build 0)  -->
<svg version="1.1" id="Layer_1" xmlns="http://www.w3.org/2000/svg" xmlns:xlink="http://www.w3.org/1999/xlink" x="0px" y="0px"
	 viewBox="0 0 1440 2000" style="enable-background:new 0 0 1440 2000;" xml:space="preserve">
<style type="text/css">
	.st0{fill:#55ADB5;}
	.st1{fill:#FFFFFF;}
</style>
<path class="st0" d="M730.4,1017.1c-6.9,0-13.9,0-20.8,0c-2.8,8.4-6.7,12-12.8,11.8c-6-0.1-9.7-3.6-12.4-12c-2.2,0-4.5,0-7.3,0
	c0-12.6-0.2-24.8,0.1-37.1c0.1-4.3,3.4-6.8,7.8-6.9c17.8-0.1,35.7-0.1,53.5,0.1c1.7,0,3.7,1.3,5,2.5c6.4,6.1,12.7,12.3,18.7,18.8
	c1.5,1.6,2.5,4.2,2.6,6.5c0.4,5.1,0.1,10.3,0.1,15.9c-3.3,0-6.4,0-9.3,0c-2.8,8.6-6.4,12.1-12.4,12.2
	C737.1,1029.1,733.2,1025.5,730.4,1017.1z M685.1,996.7c5.5,0,10.5,0,15.6,0c0-5.4,0-10.4,0-15.3c-5.4,0-10.5,0-15.6,0
	C685.1,986.6,685.1,991.4,685.1,996.7z M724.6,996.9c0-5.2,0-10.3,0-15.6c-5.2,0-10.3,0-15.2,0c0,5.4,0,10.4,0,15.6
	C714.6,996.9,719.4,996.9,724.6,996.9z M751.4,996.8c0.3-0.3,0.5-0.6,0.8-1c-6.5-4.5-10-12.6-18.9-15.5c0,6.1,0,11.2,0,16.5
	C739.5,996.8,745.4,996.8,751.4,996.8z M697.2,1011c-3.6,0.3-6,2.2-6.1,5.9c-0.1,3.7,2.1,6,5.7,6.1c3.7,0.1,5.9-2.1,6.1-5.7
	C703,1013.5,700.7,1011.5,697.2,1011z M742.7,1011c-3.5,0.6-5.8,2.5-5.6,6.3c0.2,3.7,2.5,5.8,6.1,5.7c3.6-0.2,5.8-2.5,5.7-6.1
	C748.8,1013.1,746.4,1011.3,742.7,1011z"/>
<path class="st1" d="M685.1,996.7c0-5.3,0-10.1,0-15.3c5.1,0,10.2,0,15.6,0c0,4.9,0,9.9,0,15.3C695.6,996.7,690.6,996.7,685.1,996.7
	z"/>
<path class="st1" d="M724.6,996.9c-5.2,0-10,0-15.2,0c0-5.1,0-10.2,0-15.6c5,0,10,0,15.2,0C724.6,986.5,724.6,991.7,724.6,996.9z"/>
<path class="st1" d="M751.4,996.8c-6,0-11.9,0-18.1,0c0-5.3,0-10.4,0-16.5c8.8,2.9,12.4,11,18.9,15.5
	C751.9,996.1,751.6,996.5,751.4,996.8z"/>
<path class="st1" d="M697.2,1011c3.5,0.6,5.8,2.5,5.7,6.2c-0.1,3.7-2.4,5.8-6.1,5.7c-3.7-0.1-5.8-2.4-5.7-6.1
	C691.2,1013.1,693.6,1011.3,697.2,1011z"/>
<path class="st1" d="M742.7,1011c3.6,0.3,6,2.1,6.2,5.8c0.1,3.7-2,6-5.7,6.1c-3.7,0.2-6-2-6.1-5.7
	C736.9,1013.5,739.2,1011.6,742.7,1011z"/>
</svg>
